<svg width="32" height="32" viewBox="0 0 32 32" fill="none" xmlns="http://www.w3.org/2000/svg">
<path d="M2 2H30V30H2V2Z" fill="#F5DE19"/>
<path d="M20.809 23.875C21.0476 24.3596 21.4182 24.7669 21.8782 25.05C22.3383 25.3331 22.8689 25.4804 23.409 25.475C24.499 25.475 25.196 24.93 25.196 24.175C25.196 23.275 24.48 22.953 23.28 22.428L22.622 22.146C20.722 21.337 19.462 20.324 19.462 18.182C19.462 16.209 20.962 14.706 23.315 14.706C24.0767 14.651 24.8378 14.8215 25.5032 15.1962C26.1687 15.5709 26.7091 16.1332 27.057 16.813L25 18.128C24.866 17.7909 24.6327 17.5025 24.3311 17.3011C24.0295 17.0996 23.6737 16.9946 23.311 17C23.1528 16.9842 22.993 17.0014 22.8418 17.0508C22.6906 17.1001 22.5513 17.1804 22.4329 17.2865C22.3145 17.3926 22.2194 17.5223 22.1538 17.6671C22.0883 17.812 22.0536 17.969 22.052 18.128C22.052 18.917 22.541 19.237 23.67 19.728L24.328 20.01C26.564 20.969 27.828 21.946 27.828 24.143C27.828 26.512 25.967 27.81 23.468 27.81C22.4943 27.872 21.5235 27.651 20.6726 27.1735C19.8218 26.696 19.1273 25.9824 18.673 25.119L20.809 23.875ZM11.514 24.103C11.927 24.836 12.303 25.456 13.207 25.456C14.071 25.456 14.617 25.118 14.617 23.803V14.856H17.248V23.838C17.248 26.562 15.648 27.802 13.319 27.802C12.4958 27.847 11.6782 27.6418 10.9737 27.2135C10.2692 26.7851 9.71086 26.1536 9.37201 25.402L11.514 24.103Z" fill="black"/>
</svg>
