<svg width="33" height="32" viewBox="0 0 33 32" fill="none" xmlns="http://www.w3.org/2000/svg">
<g clip-path="url(#clip0_368_453)">
<path d="M15.9267 0.0090332C7.79093 0.0090332 8.29891 3.53719 8.29891 3.53719L8.30795 7.19247H16.0718V8.28988H5.22428C5.22428 8.28988 0.0181885 7.69945 0.0181885 15.9084C0.0181885 24.1176 4.56219 23.8264 4.56219 23.8264H7.27403V20.0171C7.27403 20.0171 7.12784 15.4731 11.7455 15.4731H19.4458C19.4458 15.4731 23.7721 15.543 23.7721 11.2919V4.2629C23.7721 4.2629 24.4292 0.0090332 15.9267 0.0090332ZM11.6457 2.46714C11.8292 2.46697 12.0109 2.50298 12.1804 2.57312C12.35 2.64325 12.504 2.74612 12.6337 2.87585C12.7635 3.00558 12.8663 3.15962 12.9365 3.32915C13.0066 3.49868 13.0426 3.68038 13.0424 3.86384C13.0426 4.04731 13.0066 4.229 12.9365 4.39853C12.8663 4.56806 12.7635 4.7221 12.6337 4.85183C12.504 4.98156 12.35 5.08443 12.1804 5.15457C12.0109 5.2247 11.8292 5.26071 11.6457 5.26055C11.4623 5.26071 11.2806 5.2247 11.111 5.15457C10.9415 5.08443 10.7875 4.98156 10.6577 4.85183C10.528 4.7221 10.4251 4.56806 10.355 4.39853C10.2849 4.229 10.2489 4.04731 10.249 3.86384C10.2489 3.68038 10.2849 3.49868 10.355 3.32915C10.4251 3.15962 10.528 3.00558 10.6577 2.87585C10.7875 2.74612 10.9415 2.64325 11.111 2.57312C11.2806 2.50298 11.4623 2.46697 11.6457 2.46714Z" fill="url(#paint0_linear_368_453)"/>
<path d="M16.1577 31.8903C24.2935 31.8903 23.7855 28.3622 23.7855 28.3622L23.7765 24.707H16.0125V23.6096H26.86C26.86 23.6096 32.0661 24.2 32.0661 15.9908C32.0661 7.78176 27.5221 8.0729 27.5221 8.0729H24.8103V11.8822C24.8103 11.8822 24.9565 16.4262 20.3388 16.4262H12.6385C12.6385 16.4262 8.31221 16.3563 8.31221 20.6075V27.6366C8.31221 27.6366 7.65527 31.8903 16.1576 31.8903M20.4386 29.4325C20.2551 29.4326 20.0734 29.3966 19.9039 29.3265C19.7344 29.2563 19.5803 29.1535 19.4506 29.0237C19.3209 28.894 19.218 28.74 19.1479 28.5704C19.0777 28.4009 19.0417 28.2192 19.0419 28.0358C19.0417 27.8523 19.0777 27.6706 19.1478 27.501C19.2179 27.3315 19.3208 27.1774 19.4506 27.0477C19.5803 26.9179 19.7343 26.8151 19.9039 26.7449C20.0734 26.6748 20.2551 26.6388 20.4386 26.6389C20.622 26.6388 20.8037 26.6748 20.9733 26.7449C21.1428 26.815 21.2968 26.9179 21.4266 27.0476C21.5563 27.1774 21.6592 27.3314 21.7293 27.5009C21.7994 27.6705 21.8355 27.8522 21.8353 28.0356C21.8355 28.2191 21.7994 28.4008 21.7293 28.5703C21.6592 28.7399 21.5563 28.8939 21.4266 29.0236C21.2968 29.1533 21.1428 29.2562 20.9733 29.3264C20.8037 29.3965 20.622 29.4326 20.4386 29.4325Z" fill="url(#paint1_linear_368_453)"/>
</g>
<defs>
<linearGradient id="paint0_linear_368_453" x1="307.998" y1="286.762" x2="1896.2" y2="1859.12" gradientUnits="userSpaceOnUse">
<stop stop-color="#387EB8"/>
<stop offset="1" stop-color="#366994"/>
</linearGradient>
<linearGradient id="paint1_linear_368_453" x1="462.89" y1="498.236" x2="2168.43" y2="2110.54" gradientUnits="userSpaceOnUse">
<stop stop-color="#FFE052"/>
<stop offset="1" stop-color="#FFC331"/>
</linearGradient>
<clipPath id="clip0_368_453">
<rect width="32.1255" height="32" fill="white"/>
</clipPath>
</defs>
</svg>
