<svg width="32" height="32" viewBox="0 0 32 32" fill="none" xmlns="http://www.w3.org/2000/svg">
<path d="M26.11 17.572C25.2307 17.5732 24.3632 17.7742 23.573 18.16C23.3256 17.7494 23.1346 17.3075 23.005 16.846C22.9306 16.4843 22.9134 16.1131 22.954 15.746C23.0395 15.3421 23.1504 14.9439 23.286 14.554C23.281 14.503 23.225 14.262 22.662 14.254C22.099 14.246 21.614 14.361 21.562 14.51C21.4643 14.7821 21.3857 15.0608 21.327 15.344C20.8611 16.4935 20.2875 17.5964 19.614 18.638C19.2367 18.0194 19.0815 17.2907 19.174 16.572C19.2595 16.1681 19.3704 15.7699 19.506 15.38C19.501 15.329 19.445 15.088 18.882 15.08C18.319 15.072 17.834 15.187 17.782 15.336C17.73 15.485 17.664 15.836 17.547 16.17C17.43 16.504 16.064 19.556 15.706 20.343C15.522 20.743 15.363 21.069 15.251 21.289C15.2457 21.3033 15.239 21.317 15.231 21.33L15.078 21.622V21.627C15.001 21.765 14.919 21.893 14.878 21.893C14.8065 21.6073 14.81 21.308 14.888 21.024C15.088 19.965 15.578 18.319 15.573 18.262C15.573 18.231 15.665 17.945 15.256 17.797C15.1612 17.7519 15.0547 17.7372 14.9511 17.7551C14.8476 17.7731 14.7522 17.8226 14.678 17.897C14.642 17.897 14.617 17.984 14.617 17.984C14.617 17.984 15.062 16.133 13.768 16.133C13.2641 16.2344 12.7856 16.4355 12.3605 16.7245C11.9355 17.0135 11.5725 17.3846 11.293 17.816C10.945 18.005 10.204 18.409 9.41103 18.844C9.11103 19.013 8.79703 19.182 8.50603 19.344C8.48603 19.324 8.46503 19.298 8.44503 19.278C6.87003 17.6 3.97503 16.416 4.10003 14.171C4.14603 13.353 4.42703 11.205 9.65903 8.596C13.965 6.474 17.392 7.062 17.985 8.366C18.834 10.228 16.149 13.685 11.7 14.186C11.2078 14.2859 10.6995 14.2738 10.2126 14.1507C9.72568 14.0277 9.27266 13.7967 8.88703 13.475C8.65203 13.219 8.61603 13.204 8.52903 13.255C8.38603 13.332 8.47803 13.562 8.52903 13.695C8.69875 14.0021 8.92832 14.2722 9.20416 14.4891C9.48 14.706 9.79653 14.8655 10.135 14.958C11.8853 15.3362 13.7101 15.1554 15.352 14.441C18.052 13.398 20.152 10.498 19.536 8.069C18.917 5.604 14.826 4.791 10.954 6.169C8.52878 6.98507 6.28786 8.2705 4.35903 9.952C2.22603 11.947 1.88903 13.68 2.02703 14.407C2.52703 16.985 6.07803 18.662 7.49903 19.907C7.43483 19.9435 7.37015 19.9792 7.30503 20.014C6.59403 20.367 3.88403 21.784 3.20503 23.282C2.43803 24.982 3.32803 26.197 3.91603 26.361C4.80204 26.5731 5.73215 26.5032 6.57654 26.1612C7.42092 25.8191 8.13743 25.2219 8.62603 24.453C9.04209 23.8152 9.29784 23.0863 9.37149 22.3284C9.44514 21.5705 9.33451 20.806 9.04903 20.1C9.04421 20.0886 9.03744 20.0781 9.02903 20.069L9.58603 19.742C9.92448 19.5419 10.2672 19.3492 10.614 19.164C10.4059 19.7644 10.2836 20.3913 10.251 21.026C10.1803 21.9988 10.478 22.9626 11.085 23.726C11.1774 23.8055 11.2846 23.8659 11.4005 23.9037C11.5163 23.9414 11.6386 23.9558 11.76 23.946C12.36 23.946 12.635 23.446 12.936 22.852C13.304 22.126 13.636 21.282 13.636 21.282C13.636 21.282 13.222 23.563 14.347 23.563C14.756 23.563 15.17 23.031 15.355 22.763V22.768L15.386 22.717L15.452 22.61V22.6C15.616 22.314 15.984 21.664 16.531 20.585C17.237 19.194 17.917 17.455 17.917 17.455C17.9826 17.8372 18.0731 18.2146 18.188 18.585C18.3527 19.0339 18.5475 19.4713 18.771 19.894C18.607 20.124 18.505 20.252 18.505 20.252L18.51 20.257C18.377 20.431 18.234 20.62 18.075 20.804C17.602 21.3241 17.1631 21.8742 16.761 22.451C16.7013 22.5479 16.6808 22.6639 16.7036 22.7754C16.7265 22.8869 16.791 22.9854 16.884 23.051C17.0945 23.1605 17.3345 23.2001 17.569 23.164C17.9225 23.144 18.27 23.0646 18.597 22.929C18.913 22.8178 19.2112 22.6611 19.482 22.464C19.7613 22.2705 19.986 22.0085 20.1347 21.7031C20.2834 21.3977 20.351 21.0591 20.331 20.72C20.2996 20.2928 20.1905 19.875 20.009 19.487C20.06 19.415 20.109 19.344 20.157 19.272C20.7256 18.4234 21.238 17.5385 21.691 16.623C21.7566 17.0052 21.8471 17.3826 21.962 17.753C22.0979 18.141 22.2651 18.5172 22.462 18.878C21.808 19.3812 21.2928 20.0426 20.965 20.8C20.643 21.731 20.893 22.15 21.365 22.247C21.6233 22.2648 21.8815 22.2119 22.112 22.094C22.4509 21.9826 22.7701 21.8186 23.058 21.608C23.3616 21.4288 23.6158 21.177 23.7979 20.8752C23.98 20.5734 24.0841 20.2311 24.101 19.879C24.0783 19.5276 23.999 19.1821 23.866 18.856C24.7291 18.5188 25.6649 18.4113 26.582 18.544C29.016 18.83 29.497 20.349 29.405 20.989C29.3619 21.2159 29.2707 21.4309 29.1375 21.6196C29.0043 21.8083 28.8323 21.9663 28.633 22.083C28.464 22.19 28.408 22.226 28.423 22.303C28.443 22.416 28.523 22.41 28.668 22.39C29.0349 22.276 29.3585 22.0534 29.5963 21.7517C29.8341 21.45 29.9749 21.0833 30 20.7C30.077 19.2 28.645 17.555 26.113 17.57L26.11 17.572ZM7.33003 23.9C6.52203 24.78 5.39703 25.112 4.91103 24.831C4.38903 24.531 4.59403 23.231 5.58603 22.299C6.17448 21.7693 6.8105 21.2949 7.48603 20.882C7.60403 20.81 7.77803 20.708 7.98603 20.582L8.04203 20.551L8.16503 20.474C8.34225 21.0678 8.35832 21.698 8.21159 22.3001C8.06485 22.9022 7.76059 23.4543 7.33003 23.9ZM13.211 19.9C12.93 20.585 12.342 22.34 11.984 22.242C11.677 22.16 11.484 20.83 11.923 19.516C12.1447 18.8835 12.4675 18.2911 12.879 17.762C13.319 17.271 13.805 17.107 13.922 17.307C13.8153 18.2019 13.5756 19.0758 13.211 19.9ZM18.064 22.222C17.946 22.283 17.834 22.322 17.783 22.294C17.747 22.274 17.834 22.194 17.834 22.194C17.834 22.194 18.443 21.539 18.683 21.243C18.821 21.069 18.983 20.865 19.159 20.634V20.7C19.159 21.482 18.402 22.009 18.065 22.224L18.064 22.222ZM21.808 21.368C21.721 21.307 21.736 21.102 22.028 20.463C22.2311 20.0526 22.5147 19.6873 22.862 19.389C22.9153 19.5404 22.943 19.6995 22.944 19.86C22.948 20.2015 22.8388 20.5348 22.6335 20.8077C22.4281 21.0807 22.1383 21.2781 21.809 21.369L21.808 21.368Z" fill="#CD6799"/>
</svg>
