<svg width="50" height="36" viewBox="0 0 50 36" fill="none" xmlns="http://www.w3.org/2000/svg">
<path d="M49.8463 30.4615C49.8463 31.9304 49.2628 33.3392 48.2242 34.3778C47.1855 35.4165 45.7768 36 44.3079 36H33.231V0H44.3079C45.7768 0 47.1855 0.583515 48.2242 1.62218C49.2628 2.66084 49.8463 4.06957 49.8463 5.53846V30.4615Z" fill="#ED2939"/>
<path d="M5.53846 0C4.06957 0 2.66084 0.583515 1.62218 1.62218C0.583515 2.66084 0 4.06957 0 5.53846L0 30.4615C0 31.9304 0.583515 33.3392 1.62218 34.3778C2.66084 35.4165 4.06957 36 5.53846 36H16.6154V0H5.53846Z" fill="#002495"/>
<path d="M16.6155 0H33.2309V36H16.6155V0Z" fill="#EEEEEE"/>
</svg>
