<svg width="50" height="36" viewBox="0 0 50 36" fill="none" xmlns="http://www.w3.org/2000/svg">
<path d="M49.0777 2.76923C48.1182 1.12015 46.3528 0 44.3077 0H24.9231V2.76923H49.0777ZM0 27.6923H49.8462V30.4615H0V27.6923ZM24.9231 16.6154H49.8462V19.3846H24.9231V16.6154ZM24.9231 11.0769H49.8462V13.8462H24.9231V11.0769ZM0 22.1538H49.8462V24.9231H0V22.1538ZM5.53846 36H44.3077C46.3528 36 48.1182 34.8798 49.0777 33.2308H0.768462C1.728 34.8798 3.49338 36 5.53846 36ZM24.9231 5.53846H49.8462V8.30769H24.9231V5.53846Z" fill="#B22334"/>
<path d="M0.0941539 31.4019C0.117692 31.5307 0.144 31.6595 0.175846 31.7855C0.211846 31.9253 0.256154 32.0596 0.303231 32.1953C0.426462 32.5539 0.576 32.9001 0.764308 33.2241L0.768462 33.231H49.0777L49.0805 33.2255C49.2663 32.899 49.4203 32.5555 49.5402 32.1995C49.6313 31.9396 49.7017 31.6729 49.7506 31.4019C49.8074 31.0973 49.8462 30.7844 49.8462 30.4618H0C0 30.7844 0.0387692 31.0959 0.0941539 31.4019ZM0 24.9233H49.8462V27.6925H0V24.9233ZM0 19.3849V22.1541H49.8462V19.3849H24.9231H0ZM24.9231 13.8464H49.8462V16.6156H24.9231V13.8464ZM24.9231 8.30793H49.8462V11.0772H24.9231V8.30793ZM0.177231 4.21501C0.211846 4.07378 0.260308 3.93947 0.304615 3.80378C0.256532 3.93905 0.214034 4.07624 0.177231 4.21501ZM24.9231 5.5387H49.8462C49.8462 5.21609 49.8074 4.90316 49.7506 4.59716C49.7021 4.32593 49.6313 4.05917 49.5388 3.79962C49.4188 3.44213 49.2643 3.09713 49.0777 2.76947H24.9231V5.5387Z" fill="#EEEEEE"/>
<path d="M24.9231 0H5.53846C4.06957 0 2.66084 0.583515 1.62218 1.62218C0.583515 2.66084 0 4.06957 0 5.53846L0 19.3846H24.9231V0Z" fill="#3C3B6E"/>
<path d="M2.77063 3.7747L3.62632 4.39639L3.29955 5.40024L4.15386 4.77993L5.00955 5.40024L4.68278 4.39639L5.53848 3.7747H4.48063L4.15386 2.76947L3.82848 3.7747H2.77063ZM5.53986 6.54393L6.39555 7.16562L6.06878 8.16947L6.92309 7.54916L7.77878 8.16947L7.45201 7.16562L8.30771 6.54393H7.24986L6.92309 5.5387L6.59771 6.54393H5.53986ZM11.0783 6.54393L11.934 7.16562L11.6072 8.16947L12.4616 7.54916L13.3172 8.16947L12.9905 7.16562L13.8462 6.54393H12.7883L12.4616 5.5387L12.1362 6.54393H11.0783ZM16.6168 6.54393L17.4725 7.16562L17.1457 8.16947L18 7.54916L18.8557 8.16947L18.5289 7.16562L19.3846 6.54393H18.3268L18 5.5387L17.6746 6.54393H16.6168ZM5.53986 12.0824L6.39555 12.7041L6.06878 13.7079L6.92309 13.0876L7.77878 13.7079L7.45201 12.7041L8.30771 12.0824H7.24986L6.92309 11.0772L6.59771 12.0824H5.53986ZM11.0783 12.0824L11.934 12.7041L11.6072 13.7079L12.4616 13.0876L13.3172 13.7079L12.9905 12.7041L13.8462 12.0824H12.7883L12.4616 11.0772L12.1362 12.0824H11.0783ZM16.6168 12.0824L17.4725 12.7041L17.1457 13.7079L18 13.0876L18.8557 13.7079L18.5289 12.7041L19.3846 12.0824H18.3268L18 11.0772L17.6746 12.0824H16.6168ZM8.30909 3.7747L9.16478 4.39639L8.83801 5.40024L9.69232 4.77993L10.548 5.40024L10.2212 4.39639L11.0769 3.7747H10.0191L9.69232 2.76947L9.36694 3.7747H8.30909ZM13.8476 3.7747L14.7032 4.39639L14.3765 5.40024L15.2308 4.77993L16.0865 5.40024L15.7597 4.39639L16.6154 3.7747H15.5576L15.2308 2.76947L14.9054 3.7747H13.8476ZM19.386 3.7747L20.2417 4.39639L19.9149 5.40024L20.7692 4.77993L21.6249 5.40024L21.2982 4.39639L22.1539 3.7747H21.096L20.7692 2.76947L20.4439 3.7747H19.386ZM2.77063 9.31316L3.62632 9.93486L3.29955 10.9387L4.15386 10.3184L5.00955 10.9387L4.68278 9.93486L5.53848 9.31316H4.48063L4.15386 8.30793L3.82848 9.31316H2.77063ZM8.83801 10.9387L9.69232 10.3184L10.548 10.9387L10.2212 9.93486L11.0769 9.31316H10.0191L9.69232 8.30793L9.36694 9.31316H8.30909L9.16478 9.93486L8.83801 10.9387ZM13.8476 9.31316L14.7032 9.93486L14.3765 10.9387L15.2308 10.3184L16.0865 10.9387L15.7597 9.93486L16.6154 9.31316H15.5576L15.2308 8.30793L14.9054 9.31316H13.8476ZM19.386 9.31316L20.2417 9.93486L19.9149 10.9387L20.7692 10.3184L21.6249 10.9387L21.2982 9.93486L22.1539 9.31316H21.096L20.7692 8.30793L20.4439 9.31316H19.386ZM2.77063 14.8516L3.62632 15.4733L3.29955 16.4772L4.15386 15.8569L5.00955 16.4772L4.68278 15.4733L5.53848 14.8516H4.48063L4.15386 13.8464L3.82848 14.8516H2.77063ZM8.83801 16.4772L9.69232 15.8569L10.548 16.4772L10.2212 15.4733L11.0769 14.8516H10.0191L9.69232 13.8464L9.36694 14.8516H8.30909L9.16478 15.4733L8.83801 16.4772ZM13.8476 14.8516L14.7032 15.4733L14.3765 16.4772L15.2308 15.8569L16.0865 16.4772L15.7597 15.4733L16.6154 14.8516H15.5576L15.2308 13.8464L14.9054 14.8516H13.8476ZM19.386 14.8516L20.2417 15.4733L19.9149 16.4772L20.7692 15.8569L21.6249 16.4772L21.2982 15.4733L22.1539 14.8516H21.096L20.7692 13.8464L20.4439 14.8516H19.386Z" fill="white"/>
</svg>
