<svg width="20" height="19" viewBox="0 0 20 19" fill="none" xmlns="http://www.w3.org/2000/svg">
<path d="M2 19C1.45 19 0.979333 18.8043 0.588 18.413C0.196667 18.0217 0.000666667 17.5507 0 17V6C0 5.45 0.196 4.97933 0.588 4.588C0.98 4.19667 1.45067 4.00067 2 4H6V2C6 1.45 6.196 0.979333 6.588 0.588C6.98 0.196667 7.45067 0.000666667 8 0H12C12.55 0 13.021 0.196 13.413 0.588C13.805 0.98 14.0007 1.45067 14 2V4H18C18.55 4 19.021 4.196 19.413 4.588C19.805 4.98 20.0007 5.45067 20 6V17C20 17.55 19.8043 18.021 19.413 18.413C19.0217 18.805 18.5507 19.0007 18 19H2ZM8 4H12V2H8V4Z" fill="black"/>
</svg>
