<svg width="77" height="65" viewBox="0 0 77 65" fill="none" xmlns="http://www.w3.org/2000/svg">
<path d="M56.0238 12.7495C56.5464 12.1688 57.2782 11.8193 58.0583 11.7781C58.8385 11.7368 59.6031 12.0071 60.184 12.5295L67.0076 18.6735C69.9028 21.278 72.2991 23.4347 73.949 25.391C75.6775 27.4534 76.911 29.6651 76.911 32.3992C76.911 35.1295 75.6814 37.3412 73.949 39.3996C72.2991 41.3599 69.9028 43.5205 67.0076 46.1211L60.184 52.2651C59.8964 52.524 59.5606 52.7238 59.1958 52.853C58.8309 52.9822 58.4442 53.0383 58.0578 53.0181C57.6713 52.9978 57.2926 52.9016 56.9432 52.735C56.5939 52.5684 56.2808 52.3347 56.0219 52.047C55.7629 51.7594 55.5631 51.4236 55.4339 51.0588C55.3047 50.694 55.2486 50.3073 55.2689 49.9208C55.2891 49.5344 55.3853 49.1556 55.5519 48.8063C55.7185 48.457 55.9523 48.1439 56.2399 47.8849L62.9063 41.8863C66.0019 39.1011 68.0879 37.2115 69.4392 35.6087C70.7356 34.0649 71.0185 33.1653 71.0185 32.3992C71.0185 31.6293 70.7356 30.7297 69.4392 29.1858C68.0879 27.5791 66.0019 25.6935 62.9063 22.9083L56.2399 16.9096C55.9517 16.6508 55.7175 16.3378 55.5505 15.9883C55.3834 15.6389 55.287 15.26 55.2665 14.8732C55.2461 14.4865 55.3021 14.0995 55.4314 13.7344C55.5607 13.3693 55.7606 13.0333 56.0199 12.7456M20.9002 16.9096C21.481 16.3866 21.8303 15.6543 21.8712 14.8737C21.9121 14.0932 21.6412 13.3284 21.1182 12.7475C20.5952 12.1667 19.8628 11.8174 19.0823 11.7765C18.3017 11.7356 17.5369 12.0065 16.9561 12.5295L10.1325 18.6735C7.23724 21.278 4.84092 23.4347 3.191 25.391C1.46252 27.4534 0.229004 29.6651 0.229004 32.3992C0.229004 35.1295 1.45859 37.3412 3.191 39.3996C4.84092 41.3599 7.23724 43.5205 10.1325 46.1211L16.9561 52.2651C17.2437 52.524 17.5795 52.7238 17.9443 52.853C18.3091 52.9822 18.6958 53.0383 19.0823 53.0181C19.4688 52.9978 19.8475 52.9016 20.1968 52.735C20.5461 52.5684 20.8592 52.3347 21.1182 52.047C21.3771 51.7594 21.5769 51.4236 21.7061 51.0588C21.8353 50.694 21.8914 50.3073 21.8712 49.9208C21.8509 49.5344 21.7548 49.1556 21.5881 48.8063C21.4215 48.457 21.1878 48.1439 20.9002 47.8849L14.2337 41.8863C11.1381 39.1011 9.05215 37.2115 7.70079 35.6087C6.40442 34.0649 6.12158 33.1653 6.12158 32.3992C6.12158 31.6293 6.40442 30.7297 7.70079 29.1858C9.05215 27.5791 11.1381 25.6935 14.2337 22.9083L20.9002 16.9096Z" fill="#135BAF"/>
<path opacity="0.5" d="M47.1421 0.759505C47.8961 0.962051 48.5389 1.45562 48.9293 2.1318C49.3197 2.80798 49.4257 3.61146 49.2241 4.36576L33.6127 62.6237C33.5124 62.9974 33.3394 63.3478 33.1037 63.6547C32.8679 63.9616 32.5741 64.2191 32.2388 64.4124C31.5618 64.8028 30.7574 64.9084 30.0025 64.7057C29.2477 64.5031 28.6043 64.0089 28.2138 63.3318C27.8234 62.6548 27.7178 61.8504 27.9205 61.0955L43.5319 2.83762C43.6321 2.46382 43.8051 2.11344 44.0408 1.80649C44.2765 1.49954 44.5704 1.24203 44.9056 1.04869C45.2409 0.855341 45.611 0.729939 45.9947 0.679647C46.3784 0.629354 46.7683 0.659083 47.1421 0.759505Z" fill="#135BAF"/>
</svg>
