<svg width="21" height="32" viewBox="0 0 21 32" fill="none" xmlns="http://www.w3.org/2000/svg">
<path d="M10.3353 10.9595H5.29239C3.95532 10.9595 2.67302 11.4906 1.72757 12.4361C0.782123 13.3815 0.250977 14.6638 0.250977 16.0009C0.250977 17.3379 0.782123 18.6202 1.72757 19.5657C2.67302 20.5111 3.95532 21.0423 5.29239 21.0423H10.3353V10.9595Z" fill="#A259FF"/>
<path d="M20.4178 16.0007C20.4178 17.3379 19.8866 18.6204 18.941 19.566C17.9954 20.5116 16.7129 21.0428 15.3757 21.0428C14.0384 21.0428 12.7559 20.5116 11.8103 19.566C10.8647 18.6204 10.3335 17.3379 10.3335 16.0007C10.3335 14.6634 10.8647 13.3809 11.8103 12.4353C12.7559 11.4897 14.0384 10.9585 15.3757 10.9585C16.7129 10.9585 17.9954 11.4897 18.941 12.4353C19.8866 13.3809 20.4178 14.6634 20.4178 16.0007Z" fill="#1ABCFE"/>
<path d="M5.2921 21.0437H10.335V26.0852C10.3347 27.0821 10.0388 28.0566 9.48476 28.8854C8.93069 29.7143 8.14331 30.3602 7.22218 30.7416C6.30104 31.123 5.28751 31.2227 4.30971 31.0281C3.33191 30.8335 2.43376 30.3534 1.72879 29.6485C1.02383 28.9435 0.543715 28.0453 0.349143 27.0675C0.15457 26.0897 0.25428 25.0762 0.635665 24.1551C1.01705 23.2339 1.66298 22.4466 2.49181 21.8925C3.32063 21.3384 4.29513 21.044 5.2921 21.0437Z" fill="#0ACF83"/>
<path d="M10.3335 0.875H15.3749C16.7122 0.875 17.9947 1.40623 18.9403 2.35182C19.8858 3.29741 20.4171 4.5799 20.4171 5.91717C20.4171 7.25443 19.8858 8.53693 18.9403 9.48252C17.9947 10.4281 16.7122 10.9593 15.3749 10.9593H10.3335V0.875Z" fill="#FF7262"/>
<path d="M10.3351 0.875H5.29217C3.9549 0.875 2.67241 1.40623 1.72682 2.35182C0.781227 3.29741 0.25 4.5799 0.25 5.91717C0.25 7.25443 0.781227 8.53693 1.72682 9.48252C2.67241 10.4281 3.9549 10.9593 5.29217 10.9593H10.3351V0.875Z" fill="#F24E1E"/>
</svg>
