<svg width="31" height="32" viewBox="0 0 31 32" fill="none" xmlns="http://www.w3.org/2000/svg">
<path d="M15.5 0.875488C13.4645 0.875488 11.449 1.27641 9.56841 2.05536C7.68786 2.8343 5.97915 3.97603 4.53984 5.41533C1.63303 8.32215 0 12.2646 0 16.3755C0 23.2265 4.4485 29.039 10.602 31.1005C11.377 31.2245 11.625 30.744 11.625 30.3255V27.706C7.3315 28.636 6.417 25.629 6.417 25.629C5.704 23.831 4.6965 23.3505 4.6965 23.3505C3.286 22.3895 4.805 22.4205 4.805 22.4205C6.355 22.529 7.1765 24.017 7.1765 24.017C8.525 26.373 10.8035 25.6755 11.687 25.3035C11.8265 24.296 12.2295 23.614 12.6635 23.2265C9.2225 22.839 5.611 21.506 5.611 15.6005C5.611 13.88 6.2 12.5005 7.2075 11.4C7.0525 11.0125 6.51 9.40049 7.3625 7.30799C7.3625 7.30799 8.6645 6.88949 11.625 8.88899C12.8495 8.54799 14.1825 8.37749 15.5 8.37749C16.8175 8.37749 18.1505 8.54799 19.375 8.88899C22.3355 6.88949 23.6375 7.30799 23.6375 7.30799C24.49 9.40049 23.9475 11.0125 23.7925 11.4C24.8 12.5005 25.389 13.88 25.389 15.6005C25.389 21.5215 21.762 22.8235 18.3055 23.211C18.8635 23.6915 19.375 24.637 19.375 26.0785V30.3255C19.375 30.744 19.623 31.24 20.4135 31.1005C26.567 29.0235 31 23.2265 31 16.3755C31 14.34 30.5991 12.3244 29.8201 10.4439C29.0412 8.56335 27.8995 6.85464 26.4602 5.41533C25.0208 3.97603 23.3121 2.8343 21.4316 2.05536C19.551 1.27641 17.5355 0.875488 15.5 0.875488Z" fill="#171515"/>
</svg>
