<svg width="83" height="65" viewBox="0 0 83 65" fill="none" xmlns="http://www.w3.org/2000/svg">
<path d="M79.9636 47.4998V26.8134L81.2534 26.1326C82.092 25.6966 82.6201 24.8324 82.6304 23.8862C82.6406 22.9425 82.1291 22.068 81.3008 21.6129L42.7205 0.970126C41.9487 0.547013 41.0153 0.549497 40.2383 0.977739L1.86955 21.6462C1.05274 22.1014 0.547644 22.9655 0.552773 23.9029C0.557902 24.8402 1.07333 25.6979 1.90041 26.1443L18.7596 35.118C18.548 35.4911 18.4172 35.9168 18.4172 36.3758V58.0752C18.4173 58.437 18.4939 58.7946 18.6419 59.1248C18.79 59.4549 19.0062 59.75 19.2763 59.9907C19.8328 60.4843 25.1615 64.8065 41.4539 64.8065C57.6886 64.8065 63.1609 60.7215 63.7315 60.2561C64.3277 59.7702 64.6726 59.0419 64.6726 58.27V36.0142C64.6726 35.6539 64.5969 35.3116 64.4636 35.0013L74.835 29.5225V47.5139C73.3144 48.4037 72.2835 50.0359 72.2835 51.9233C72.2835 54.7556 74.5798 57.0519 77.4121 57.0519C80.2444 57.0519 82.5408 54.7556 82.5408 51.9233C82.5408 50.0243 81.4958 48.3857 79.9636 47.4998ZM59.5438 56.8006C57.5282 57.7699 52.1944 59.6778 41.4537 59.6778C30.6451 59.6778 25.4319 57.6468 23.5458 56.6698V37.6669L40.1985 46.5318C40.5722 46.7339 40.9904 46.8396 41.4153 46.8395C41.8291 46.8398 42.2367 46.7391 42.6026 46.5459L59.5438 37.5977V56.8006ZM41.4358 41.3699L8.45217 23.8555L41.4935 6.14758L74.6374 23.8042L41.4358 41.3699Z" fill="#135BAF"/>
</svg>
