<svg width="24" height="24" viewBox="0 0 24 24" fill="none" xmlns="http://www.w3.org/2000/svg">
<path d="M22.6749 12.5158C22.4938 14.4758 21.7582 16.3437 20.5543 17.9008C19.3503 19.458 17.7277 20.6401 15.8765 21.3088C14.0252 21.9775 12.0218 22.1052 10.1006 21.6768C8.17943 21.2484 6.42 20.2818 5.02817 18.8899C3.63634 17.4981 2.66969 15.7387 2.24131 13.8175C1.81294 11.8963 1.94057 9.8929 2.60926 8.04163C3.27795 6.19035 4.46006 4.5678 6.01725 3.36384C7.57444 2.15987 9.44231 1.42429 11.4023 1.24316C10.2548 2.79562 9.7026 4.70837 9.84616 6.63355C9.98973 8.55872 10.8195 10.3684 12.1846 11.7335C13.5497 13.0986 15.3594 13.9284 17.2845 14.0719C19.2097 14.2155 21.1225 13.6633 22.6749 12.5158Z" stroke="#1E293B" stroke-width="2.30289" stroke-linecap="round" stroke-linejoin="round"/>
</svg>
