<svg width="18" height="12" viewBox="0 0 18 12" fill="none" xmlns="http://www.w3.org/2000/svg">
<path d="M6.70994 0.29C6.61698 0.196272 6.50638 0.121877 6.38452 0.0711088C6.26266 0.0203401 6.13195 -0.00579834 5.99994 -0.00579834C5.86793 -0.00579834 5.73722 0.0203401 5.61536 0.0711088C5.4935 0.121877 5.3829 0.196272 5.28994 0.29L0.289939 5.29C0.19621 5.38296 0.121816 5.49356 0.0710475 5.61542C0.0202789 5.73728 -0.00585938 5.86799 -0.00585938 6C-0.00585938 6.13201 0.0202789 6.26272 0.0710475 6.38458C0.121816 6.50644 0.19621 6.61704 0.289939 6.71L5.28994 11.71C5.3829 11.8037 5.4935 11.8781 5.61536 11.9289C5.73722 11.9797 5.86793 12.0058 5.99994 12.0058C6.13195 12.0058 6.26266 11.9797 6.38452 11.9289C6.50638 11.8781 6.61698 11.8037 6.70994 11.71C6.80367 11.617 6.87806 11.5064 6.92883 11.3846C6.9796 11.2627 7.00574 11.132 7.00574 11C7.00574 10.868 6.9796 10.7373 6.92883 10.6154C6.87806 10.4936 6.80367 10.383 6.70994 10.29L2.40994 6L6.70994 1.71C6.80367 1.61704 6.87806 1.50644 6.92883 1.38458C6.9796 1.26272 7.00574 1.13201 7.00574 1C7.00574 0.867988 6.9796 0.737282 6.92883 0.615423C6.87806 0.493564 6.80367 0.382963 6.70994 0.29ZM17.7099 5.29L12.7099 0.29C12.6167 0.196761 12.506 0.122801 12.3842 0.0723405C12.2624 0.0218802 12.1318 -0.00409174 11.9999 -0.00409174C11.7336 -0.00409174 11.4782 0.101696 11.2899 0.29C11.1967 0.383238 11.1227 0.493929 11.0723 0.615751C11.0218 0.737573 10.9958 0.868141 10.9958 1C10.9958 1.2663 11.1016 1.5217 11.2899 1.71L15.5899 6L11.2899 10.29C11.1962 10.383 11.1218 10.4936 11.071 10.6154C11.0203 10.7373 10.9941 10.868 10.9941 11C10.9941 11.132 11.0203 11.2627 11.071 11.3846C11.1218 11.5064 11.1962 11.617 11.2899 11.71C11.3829 11.8037 11.4935 11.8781 11.6154 11.9289C11.7372 11.9797 11.8679 12.0058 11.9999 12.0058C12.132 12.0058 12.2627 11.9797 12.3845 11.9289C12.5064 11.8781 12.617 11.8037 12.7099 11.71L17.7099 6.71C17.8037 6.61704 17.8781 6.50644 17.9288 6.38458C17.9796 6.26272 18.0057 6.13201 18.0057 6C18.0057 5.86799 17.9796 5.73728 17.9288 5.61542C17.8781 5.49356 17.8037 5.38296 17.7099 5.29Z" fill="black"/>
</svg>
