<svg width="21" height="20" viewBox="0 0 21 20" fill="none" xmlns="http://www.w3.org/2000/svg">
<path d="M10.0153 0.00214856C9.99487 0.00586466 9.97444 0.0114381 9.95586 0.017012C9.73476 0.0671763 9.5787 0.265975 9.58427 0.492643V3.34643C9.58241 3.51736 9.67159 3.67714 9.82023 3.76446C9.96886 3.84993 10.1509 3.84993 10.2996 3.76446C10.4482 3.67714 10.5374 3.51736 10.5355 3.34643V0.492643C10.5411 0.355156 10.4854 0.223242 10.3869 0.130346C10.2866 0.0355915 10.1509 -0.0108571 10.0153 0.00214856ZM3.23757 2.79648C3.05921 2.82806 2.91615 2.95812 2.86599 3.13091C2.81582 3.30555 2.86785 3.49135 2.99976 3.61397L5.02119 5.6354C5.13638 5.7766 5.32032 5.84163 5.49868 5.80075C5.67518 5.75988 5.81453 5.62054 5.8554 5.44403C5.89628 5.26567 5.83125 5.08174 5.69004 4.96654L3.66861 2.94511C3.57014 2.83921 3.42708 2.78533 3.28216 2.79648C3.2673 2.79648 3.25244 2.79648 3.23757 2.79648ZM16.7336 2.79648C16.6258 2.81134 16.5255 2.86522 16.4512 2.94511L14.4298 4.96654C14.2886 5.08174 14.2235 5.26567 14.2644 5.44403C14.3053 5.62054 14.4446 5.75988 14.6211 5.80075C14.7995 5.84163 14.9834 5.7766 15.0986 5.6354L17.12 3.61397C17.2687 3.47277 17.3114 3.25167 17.2241 3.06588C17.1349 2.87823 16.938 2.77047 16.7336 2.79648ZM10.0153 5.24895C10.0004 5.25267 9.98558 5.25824 9.97072 5.26381C9.94099 5.26567 9.91127 5.27124 9.88154 5.27868C9.87597 5.28425 9.87225 5.28797 9.86668 5.29354C7.3436 5.4013 5.30359 7.45617 5.30359 10.0053C5.30359 12.6231 7.44208 14.7616 10.0599 14.7616C12.6777 14.7616 14.8162 12.6231 14.8162 10.0053C14.8162 7.46546 12.7929 5.41802 10.2829 5.29354C10.2661 5.29354 10.255 5.27868 10.2383 5.27868C10.19 5.2601 10.1398 5.25081 10.0896 5.24895C10.0803 5.24895 10.0692 5.24895 10.0599 5.24895C10.045 5.24895 10.0302 5.24895 10.0153 5.24895ZM10.0302 6.20021C10.0395 6.20021 10.0506 6.20021 10.0599 6.20021C10.0748 6.20021 10.0896 6.20021 10.1045 6.20021C12.1854 6.22436 13.8649 7.9188 13.8649 10.0053C13.8649 12.1084 12.1631 13.8103 10.0599 13.8103C7.95858 13.8103 6.25486 12.1084 6.25486 10.0053C6.25486 7.91322 7.94186 6.21693 10.0302 6.20021ZM0.413517 9.52962C0.151549 9.56678 -0.0323862 9.81017 0.00477242 10.0721C0.0419311 10.3341 0.28532 10.518 0.547289 10.4809H3.40107C3.572 10.4827 3.73178 10.3936 3.81911 10.2449C3.90457 10.0963 3.90457 9.91422 3.81911 9.76558C3.73178 9.61695 3.572 9.52777 3.40107 9.52962H0.547289C0.532425 9.52962 0.517562 9.52962 0.502698 9.52962C0.487835 9.52962 0.472971 9.52962 0.458108 9.52962C0.443244 9.52962 0.428381 9.52962 0.413517 9.52962ZM16.585 9.52962C16.323 9.56678 16.1391 9.81017 16.1762 10.0721C16.2134 10.3341 16.4568 10.518 16.7187 10.4809H19.5725C19.7434 10.4827 19.9032 10.3936 19.9905 10.2449C20.076 10.0963 20.076 9.91422 19.9905 9.76558C19.9032 9.61695 19.7434 9.52777 19.5725 9.52962H16.7187C16.7039 9.52962 16.689 9.52962 16.6741 9.52962C16.6593 9.52962 16.6444 9.52962 16.6295 9.52962C16.6147 9.52962 16.5998 9.52962 16.585 9.52962ZM5.30359 14.2265C5.19583 14.2413 5.09551 14.2952 5.02119 14.3751L2.99976 16.3965C2.85856 16.5117 2.79353 16.6957 2.8344 16.874C2.87528 17.0505 3.01462 17.1899 3.19113 17.2308C3.36949 17.2716 3.55342 17.2066 3.66861 17.0654L5.69004 15.044C5.83125 14.9083 5.87398 14.6984 5.7978 14.5182C5.72349 14.338 5.54327 14.2228 5.34819 14.2265C5.33332 14.2265 5.31846 14.2265 5.30359 14.2265ZM14.6676 14.2265C14.4892 14.2581 14.3462 14.3881 14.296 14.5609C14.2458 14.7355 14.2978 14.9213 14.4298 15.044L16.4512 17.0654C16.5664 17.2066 16.7503 17.2716 16.9287 17.2308C17.1052 17.1899 17.2445 17.0505 17.2854 16.874C17.3263 16.6957 17.2612 16.5117 17.12 16.3965L15.0986 14.3751C15.0094 14.2804 14.8868 14.2283 14.7568 14.2265C14.7419 14.2265 14.727 14.2265 14.7122 14.2265C14.6973 14.2265 14.6824 14.2265 14.6676 14.2265ZM10.0153 16.1736C9.99487 16.1773 9.97444 16.1829 9.95586 16.1885C9.73476 16.2386 9.5787 16.4374 9.58427 16.6641V19.5179C9.58241 19.6888 9.67159 19.8486 9.82023 19.9359C9.96886 20.0214 10.1509 20.0214 10.2996 19.9359C10.4482 19.8486 10.5374 19.6888 10.5355 19.5179V16.6641C10.5411 16.5266 10.4854 16.3947 10.3869 16.3018C10.2866 16.207 10.1509 16.1606 10.0153 16.1736Z" fill="#8A8A8A"/>
</svg>
