<svg width="22" height="32" viewBox="0 0 22 32" fill="none" xmlns="http://www.w3.org/2000/svg">
<g clip-path="url(#clip0_368_434)">
<path d="M5.33333 32C8.27733 32 10.6667 29.6107 10.6667 26.6667V21.3333H5.33333C2.38933 21.3333 0 23.7227 0 26.6667C0 29.6107 2.38933 32 5.33333 32Z" fill="#ACACAC"/>
<path d="M0 16C0 13.056 2.38933 10.6667 5.33333 10.6667H10.6667V21.3333H5.33333C2.38933 21.3333 0 18.944 0 16Z" fill="#ACACAC"/>
<path d="M0 5.33333C0 2.38933 2.38933 0 5.33333 0H10.6667V10.6667H5.33333C2.38933 10.6667 0 8.27733 0 5.33333Z" fill="#ACACAC"/>
<path d="M10.6667 0H16C18.944 0 21.3333 2.38933 21.3333 5.33333C21.3333 8.27733 18.944 10.6667 16 10.6667H10.6667V0Z" fill="#ACACAC"/>
<path d="M21.3333 16C21.3333 18.944 18.944 21.3333 16 21.3333C13.056 21.3333 10.6667 18.944 10.6667 16C10.6667 13.056 13.056 10.6667 16 10.6667C18.944 10.6667 21.3333 13.056 21.3333 16Z" fill="#ACACAC"/>
</g>
<defs>
<clipPath id="clip0_368_434">
<rect width="21.3333" height="32" fill="white"/>
</clipPath>
</defs>
</svg>
