<svg width="32" height="32" viewBox="0 0 32 32" fill="none" xmlns="http://www.w3.org/2000/svg">
<path d="M7.6 13.791C7.90835 13.7522 8.22132 13.775 8.52084 13.8579C8.82035 13.9408 9.10047 14.0822 9.345 14.274C9.50278 14.517 9.60338 14.7927 9.63924 15.0802C9.67509 15.3677 9.64526 15.6597 9.552 15.934C9.47019 16.6094 9.14357 17.2313 8.634 17.682C8.01949 18.0778 7.29308 18.2635 6.564 18.211H5.164L6.024 13.8L7.6 13.791ZM2 22.677H4.3L4.845 19.877H6.812C7.53666 19.8955 8.25983 19.802 8.956 19.6C9.52776 19.4112 10.0504 19.0977 10.486 18.682C11.2394 18.0045 11.7472 17.0966 11.93 16.1C12.0743 15.604 12.0997 15.0809 12.0042 14.5733C11.9086 14.0656 11.6948 13.5876 11.38 13.178C11.0005 12.8019 10.5435 12.5132 10.0409 12.332C9.53827 12.1508 9.00216 12.0816 8.47 12.129H4.057L2 22.677ZM13.617 9.323H15.9L15.347 12.123H17.378C18.3111 12.0253 19.2486 12.2624 20.023 12.792C20.2792 13.0833 20.4544 13.4368 20.5309 13.8172C20.6075 14.1975 20.5826 14.5913 20.459 14.959L19.505 19.868H17.195L18.103 15.201C18.1662 15.0229 18.1887 14.833 18.169 14.6451C18.1493 14.4572 18.0878 14.2761 17.989 14.115C17.658 13.8775 17.2488 13.7752 16.845 13.829H15.022L13.847 19.873H11.559L13.617 9.323ZM25.539 13.791C25.8473 13.7522 26.1603 13.775 26.4598 13.8579C26.7594 13.9408 27.0395 14.0822 27.284 14.274C27.4418 14.517 27.5424 14.7927 27.5782 15.0802C27.6141 15.3677 27.5843 15.6597 27.491 15.934C27.4092 16.6094 27.0826 17.2313 26.573 17.682C25.9574 18.0787 25.2294 18.2644 24.499 18.211H23.1L23.958 13.795L25.539 13.791ZM19.939 22.677H22.239L22.784 19.877H24.752C25.478 19.8959 26.2025 19.8024 26.9 19.6C27.4718 19.4112 27.9944 19.0977 28.43 18.682C29.1816 18.0038 29.6875 17.0959 29.869 16.1C30.0133 15.604 30.0387 15.0809 29.9432 14.5733C29.8476 14.0656 29.6338 13.5876 29.319 13.178C28.9394 12.8026 28.4824 12.5145 27.98 12.3339C27.4776 12.1532 26.9418 12.0843 26.41 12.132H21.99L19.939 22.677Z" fill="#ACACAC"/>
</svg>
