<svg width="32" height="32" viewBox="0 0 32 32" fill="none" xmlns="http://www.w3.org/2000/svg">
<path fill-rule="evenodd" clip-rule="evenodd" d="M8.785 6.865C8.5201 6.86416 8.25622 6.89777 8 6.965V7H8.038C8.22151 7.27701 8.42612 7.53946 8.65 7.785C8.804 8.091 8.938 8.396 9.091 8.702L9.129 8.663C9.27106 8.55024 9.38224 8.40333 9.45219 8.23599C9.52213 8.06865 9.54856 7.88631 9.529 7.706C9.44525 7.57687 9.36848 7.44334 9.299 7.306C9.184 7.115 8.935 7.019 8.782 6.866" fill="#ACACAC"/>
<path fill-rule="evenodd" clip-rule="evenodd" d="M27.78 23.553C26.5186 23.4644 25.2528 23.6472 24.068 24.089C23.781 24.204 23.323 24.204 23.283 24.567C23.437 24.72 23.455 24.967 23.59 25.18C23.8519 25.6235 24.1886 26.0183 24.585 26.347C24.985 26.653 25.385 26.958 25.81 27.226C26.555 27.687 27.398 27.954 28.124 28.413C28.546 28.681 28.966 29.025 29.388 29.313C29.598 29.466 29.731 29.713 29.999 29.813V29.755C29.9203 29.5425 29.8229 29.3374 29.708 29.142C29.517 28.952 29.325 28.779 29.133 28.588C28.5721 27.8463 27.901 27.1948 27.143 26.656C26.53 26.234 25.19 25.656 24.943 24.956L24.904 24.917C25.3526 24.8534 25.7946 24.7504 26.225 24.609C26.875 24.437 27.468 24.476 28.137 24.309C28.444 24.232 28.999 24.041 28.999 24.041V23.741C28.657 23.401 28.412 22.946 28.052 22.625C27.0726 21.7701 26.0289 20.9918 24.93 20.297C24.343 19.918 23.586 19.674 22.961 19.351C22.735 19.237 22.361 19.181 22.224 18.991C21.9132 18.535 21.653 18.0464 21.448 17.534C20.8886 16.4568 20.3712 15.3583 19.897 14.241C19.6176 13.5038 19.2954 12.7836 18.932 12.084C17.1784 9.10246 14.6471 6.6538 11.609 5C10.8425 4.62895 10.0275 4.36772 9.18802 4.224C8.71403 4.204 8.24203 4.167 7.76903 4.149C7.46369 3.94897 7.17326 3.72705 6.90003 3.485C5.81803 2.8 3.03803 1.328 2.24203 3.277C1.73203 4.508 3.00003 5.718 3.43503 6.343C3.80182 6.78368 4.125 7.25891 4.40003 7.762C4.53303 8.084 4.57103 8.425 4.70003 8.762C4.97761 9.62711 5.30721 10.4747 5.68703 11.3C5.89017 11.7079 6.12418 12.0997 6.38703 12.472C6.54003 12.681 6.80403 12.772 6.86103 13.117C6.65131 13.5678 6.5046 14.0452 6.42503 14.536C6.09447 15.5799 5.97282 16.6787 6.06702 17.7696C6.16121 18.8605 6.46942 19.9222 6.97403 20.894C7.27403 21.367 7.99603 22.408 8.96103 22.01C9.81203 21.67 9.62303 20.591 9.86903 19.646C9.92503 19.417 9.88803 19.267 10.001 19.116V19.3C10.001 19.3 10.484 20.361 10.724 20.9C11.3767 21.889 12.1875 22.764 13.124 23.49C13.4945 23.8134 13.7929 24.211 14 24.657V25H14.427C14.4181 24.8453 14.3753 24.6946 14.3015 24.5584C14.2277 24.4222 14.1247 24.3039 14 24.212C13.6499 23.8516 13.3292 23.4637 13.041 23.052C12.2583 21.9372 11.568 20.7603 10.977 19.533C10.677 18.933 10.424 18.275 10.184 17.676C10.074 17.445 10.074 17.096 9.88903 16.976C9.54742 17.3802 9.251 17.8204 9.00503 18.289C8.70642 19.236 8.53262 20.218 8.48803 21.21C8.41503 21.23 8.45103 21.21 8.41503 21.248C7.82603 21.093 7.62303 20.456 7.40103 19.916C6.82754 18.2505 6.76968 16.4508 7.23503 14.752C7.36303 14.347 7.91803 13.071 7.69603 12.684C7.58503 12.315 7.21603 12.104 7.01403 11.813C6.75615 11.4215 6.53424 11.0075 6.35103 10.576C5.91202 9.5 5.69003 8.3 5.21203 7.216C4.94742 6.69466 4.63933 6.19656 4.29103 5.727C3.90574 5.25794 3.56588 4.75334 3.27603 4.22C3.18403 4.007 3.05503 3.659 3.20203 3.427C3.21195 3.36256 3.24259 3.3031 3.28933 3.25763C3.33606 3.21216 3.39633 3.18315 3.46103 3.175C3.69903 2.963 4.38203 3.233 4.62103 3.349C5.26338 3.60188 5.87523 3.92625 6.44503 4.316C6.70303 4.51 7.31103 5.001 7.31103 5.001H7.49103C8.10303 5.134 8.79103 5.038 9.36702 5.211C10.3369 5.53429 11.2624 5.97774 12.122 6.531C14.6557 8.14615 16.7155 10.4047 18.091 13.076C18.321 13.515 18.418 13.918 18.628 14.376C19.028 15.316 19.528 16.276 19.928 17.19C20.2809 18.0943 20.7373 18.9547 21.288 19.754C21.574 20.154 22.723 20.366 23.24 20.576C23.689 20.7313 24.1296 20.9099 24.56 21.111C25.211 21.511 25.86 21.972 26.473 22.411C26.778 22.641 27.735 23.119 27.793 23.502" fill="#ACACAC"/>
</svg>
