<svg width="70" height="65" viewBox="0 0 70 65" fill="none" xmlns="http://www.w3.org/2000/svg">
<path d="M68.6079 62.2103C68.2687 62.9077 67.6702 63.4448 66.9404 63.707C65.5208 64.1973 64.0033 64.3349 62.5186 64.1081C61.0328 63.8811 59.6247 63.2959 58.4157 62.4031L58.1389 62.1987L57.8243 62.3379C56.437 62.9516 54.9175 63.2059 53.406 63.0773C51.8977 62.949 50.4459 62.4435 49.1841 61.6075L48.6178 61.2035L33.0474 49.0912L32.8084 48.9053L32.5178 48.9902C27.3267 50.506 21.7788 50.2509 16.7488 48.2651C11.7187 46.2793 7.49271 42.6757 4.73712 38.0226C1.98153 33.3694 0.853095 27.9315 1.52976 22.5661C2.20642 17.2008 4.64967 12.2132 8.47428 8.38999L8.83458 8.02981C12.5511 4.46284 17.3068 2.16297 22.4199 1.46846C27.7012 0.751093 33.0721 1.78613 37.7086 4.41482C42.3452 7.04351 45.9913 11.1207 48.0878 16.0209C50.1836 20.9197 50.615 26.3706 49.3158 31.5379L49.0713 32.4452L48.9945 32.73L49.1756 32.9629L61.2919 48.543L61.292 48.5431C62.2493 49.7737 62.8716 51.2312 63.0984 52.7737C63.3252 54.3162 63.1488 55.8912 62.5862 57.3453L62.3553 57.9422L62.9683 58.1261C63.4033 58.2566 63.9371 58.3253 64.5803 58.1966L64.5976 58.1932L64.6146 58.1887L65.0351 58.0782L65.0473 58.075L65.0593 58.0713C65.8014 57.8422 66.6038 57.9128 67.2945 58.2679C67.9852 58.6231 68.5094 59.2345 68.7549 59.9714C69.0004 60.7082 68.9476 61.5119 68.6079 62.2103ZM46.6824 39.4344L46.1875 38.7978L45.7282 39.4605C44.0543 41.8755 41.96 43.9699 39.545 45.6437L38.8824 46.103L39.5188 46.5979L52.2765 56.519L52.2765 56.519L52.2833 56.5242C52.8778 56.973 53.6147 57.1916 54.3578 57.1398C55.1009 57.0879 55.8002 56.7691 56.3267 56.2421C56.8532 55.7151 57.1713 55.0154 57.2224 54.2722C57.2735 53.5291 57.0541 52.7925 56.6047 52.1984L56.6047 52.1983L56.5999 52.1922L46.6824 39.4344ZM40.7959 15.0807L40.2747 14.3324L39.8031 15.1129L39.0834 16.3042C39.0828 16.3052 39.0822 16.3061 39.0816 16.3071C36.2317 20.8976 32.8649 25.1463 29.0471 28.9698C25.2245 32.7861 20.9771 36.1518 16.3879 39.0008C16.387 39.0014 16.386 39.0019 16.3851 39.0025L15.1938 39.7222L14.4133 40.1938L15.1616 40.715C18.7075 43.1849 23.0092 44.3291 27.3136 43.9472C31.6181 43.5652 35.6511 41.6816 38.7068 38.6259C41.7625 35.5702 43.6461 31.5372 44.028 27.2328C44.4099 22.9283 43.2658 18.6266 40.7959 15.0807ZM35.4888 10.6829L35.7664 10.1852L35.2797 9.88871C31.7539 7.74103 27.6087 6.84026 23.5095 7.331C19.4103 7.82173 15.5949 9.6755 12.6756 12.5948C9.75637 15.514 7.9026 19.3294 7.41187 23.4286C6.92114 27.5278 7.8219 31.673 9.96959 35.1988L10.2677 35.6882L10.7665 35.4064L11.9212 34.7542L11.9212 34.7543L11.93 34.7491C16.64 31.9807 20.9807 28.6273 24.8487 24.7688L24.8497 24.7678C28.3417 21.2671 31.4212 17.3779 34.028 13.1762L34.0302 13.1726L34.4436 12.4955L34.4437 12.4956L34.4493 12.486L35.1727 11.2494L35.1728 11.2495L35.1788 11.2388L35.4888 10.6829Z" fill="#135BAF" stroke="#F1F5F9" stroke-width="1.18434"/>
</svg>
