<svg width="31" height="32" viewBox="0 0 31 32" fill="none" xmlns="http://www.w3.org/2000/svg">
<path d="M26.8889 0.875C27.7803 0.875 28.6352 1.22912 29.2656 1.85945C29.8959 2.48978 30.25 3.34469 30.25 4.23611V27.7639C30.25 28.6553 29.8959 29.5102 29.2656 30.1406C28.6352 30.7709 27.7803 31.125 26.8889 31.125H3.36111C2.46969 31.125 1.61478 30.7709 0.984447 30.1406C0.354116 29.5102 0 28.6553 0 27.7639V4.23611C0 3.34469 0.354116 2.48978 0.984447 1.85945C1.61478 1.22912 2.46969 0.875 3.36111 0.875H26.8889ZM26.0486 26.9236V18.0167C26.0486 16.5636 25.4714 15.1701 24.444 14.1427C23.4165 13.1153 22.023 12.5381 20.57 12.5381C19.1415 12.5381 17.4778 13.4119 16.6711 14.7228V12.8574H11.9824V26.9236H16.6711V18.6385C16.6711 17.3444 17.7131 16.2857 19.0071 16.2857C19.6311 16.2857 20.2295 16.5336 20.6707 16.9748C21.112 17.416 21.3599 18.0145 21.3599 18.6385V26.9236H26.0486ZM6.52056 10.2189C7.26935 10.2189 7.98748 9.92143 8.51695 9.39195C9.04643 8.86248 9.34389 8.14435 9.34389 7.39556C9.34389 5.83264 8.08347 4.55542 6.52056 4.55542C5.7673 4.55542 5.0449 4.85464 4.51227 5.38727C3.97964 5.9199 3.68042 6.6423 3.68042 7.39556C3.68042 8.95847 4.95764 10.2189 6.52056 10.2189ZM8.85653 26.9236V12.8574H4.20139V26.9236H8.85653Z" fill="#0B66C3"/>
</svg>
